<?xml version="1.0" encoding="utf-8"?>
<!-- Generator: Adobe Illustrator 16.0.0, SVG Export Plug-In . SVG Version: 6.00 Build 0)  -->
<!DOCTYPE svg PUBLIC "-//W3C//DTD SVG 1.1//EN" "http://www.w3.org/Graphics/SVG/1.1/DTD/svg11.dtd">
<svg version="1.1" id="Layer_1" xmlns="http://www.w3.org/2000/svg" xmlns:xlink="http://www.w3.org/1999/xlink" x="0px" y="0px"
	 width="40px" height="30px" viewBox="0 0 566 601.5" enable-background="new 0 0 566 601.5" xml:space="preserve">
<g>
	<g>
		<path fill="#868686" d="M227.529,499.612c-2.833,0-5.479-1.087-7.449-3.059L106.44,382.913
			c-4.104-4.104-4.104-10.783-0.001-14.893l22.73-22.73c1.99-1.987,4.635-3.084,7.449-3.084c1.296,0,2.568,0.236,3.78,0.702
			l53.298,20.5c26.833-31.806,66.833-78.71,108.518-125.771L116.902,101.997c-2.458-1.799-4.005-4.604-4.243-7.697
			c-0.237-3.091,0.862-6.098,3.017-8.251l19.177-19.176c1.985-1.988,4.631-3.086,7.448-3.086c1.017,0,2.028,0.147,3.004,0.438
			l72.788,21.681l13.352-13.351c5.016-5.02,11.697-7.782,18.812-7.782c7.115,0,13.796,2.764,18.813,7.783
			c5.023,5.023,7.79,11.705,7.79,18.811c0,3.949-0.858,7.792-2.505,11.3l5.029,1.498l14.563-14.563
			c5.017-5.02,11.695-7.781,18.809-7.781c7.114,0,13.795,2.763,18.814,7.78c8.398,8.401,10.076,21.294,4.563,31.47l57.371,17.088
			c6.872-7.125,13.514-13.896,19.763-20.145c19.692-19.695,40.578-35.729,58.813-45.148c12.677-6.547,24.103-9.868,33.959-9.868
			c9.853,0,18.063,3.216,24.401,9.561c8.976,8.975,16.209,26.385-0.309,58.357c-9.418,18.229-25.452,39.114-45.146,58.813
			c-6.087,6.088-12.858,12.729-20.147,19.762l17.09,57.375c3.87-2.087,8.251-3.208,12.686-3.208c7.104,0,13.772,2.76,18.784,7.771
			c5.018,5.016,7.78,11.694,7.78,18.81c0,7.113-2.765,13.794-7.783,18.813l-14.56,14.563l1.497,5.025
			c3.505-1.646,7.347-2.504,11.297-2.504c7.104,0,13.786,2.767,18.813,7.789c10.37,10.375,10.37,27.255,0.002,37.628l-13.356,13.353
			l21.687,72.785c1.104,3.719,0.088,7.725-2.65,10.457l-19.176,19.176c-1.962,1.965-4.601,3.048-7.422,3.048
			c-0.003,0-0.003,0-0.003,0c-3.379,0-6.563-1.599-8.521-4.273l-102.74-140.363c-1.663-2.27-2.343-5.05-1.912-7.832
			c0.432-2.781,1.918-5.229,4.189-6.891c1.819-1.33,3.968-2.033,6.215-2.033c3.35,0,6.529,1.611,8.506,4.312l95.479,130.447
			l6.05-6.047l-69.071-231.878c-19.374,18.269-41.729,38.729-66.547,60.907l14.179,19.369c3.119,4.264,2.587,10.216-1.236,13.848
			c-1.947,1.851-4.521,2.87-7.245,2.87c-3.375,0-6.562-1.6-8.521-4.275l-12.984-17.747c-47.115,41.733-93.992,81.71-125.771,108.521
			l20.496,53.294c1.496,3.88,0.561,8.29-2.383,11.231l-22.725,22.727C233.007,498.526,230.362,499.612,227.529,499.612z
			 M227.531,474.213l10.438-10.438l-15.432-40.124c-8.524,7.15-17.004,14.23-24.833,20.734L227.531,474.213z M182.742,429.427
			c36.839-30.575,197.936-165.185,287.346-254.595c17.943-17.942,33.007-37.475,41.328-53.584c4.823-9.34,11.774-26.148,4.13-33.796
			c-2.304-2.303-5.459-3.423-9.646-3.423c-6.235,0-14.585,2.612-24.148,7.554c-16.124,8.329-35.653,23.393-53.583,41.323
			c-89.492,89.493-224.025,250.517-254.593,287.353L182.742,429.427z M158.612,405.297c4.892-5.89,11.916-14.315,20.738-24.834
			l-40.125-15.434l-10.441,10.438L158.612,405.297z M510.251,361.95l5.295-5.294c1.044-1.044,1.618-2.435,1.618-3.917
			c0-1.48-0.574-2.872-1.618-3.915c-1.044-1.044-2.435-1.619-3.916-1.619c-1.479,0-2.871,0.575-3.914,1.619l-1.061,1.061
			L510.251,361.95z M491.994,300.66l6.508-6.507c2.122-2.123,2.122-5.709,0-7.832c-1.044-1.042-2.437-1.617-3.92-1.616
			c-1.481,0-2.87,0.573-3.91,1.615l-2.271,2.27L491.994,300.66z M316.275,221.829c22.199-24.838,42.662-47.196,60.912-66.551
			L145.309,86.209l-6.05,6.048L316.275,221.829z M314.409,114.596l2.269-2.27c2.159-2.159,2.159-5.673,0-7.832
			c-1.025-1.022-2.416-1.589-3.916-1.589s-2.892,0.564-3.916,1.589L302.34,111L314.409,114.596z M253.117,96.34l1.06-1.058
			c2.156-2.157,2.156-5.67-0.003-7.83c-1.043-1.043-2.434-1.618-3.917-1.618c-1.481,0-2.871,0.574-3.913,1.617l-5.295,5.295
			L253.117,96.34z"/>
	</g>
	<g>
		<path fill="#868686" d="M419.254,579.967c-3.106,0-6.032-1.332-8.021-3.654c-3.553-4.148-3.308-10.426,0.558-14.293l64.285-64.286
			c1.992-1.989,4.638-3.083,7.45-3.083s5.459,1.095,7.445,3.083c4.107,4.107,4.107,10.79,0,14.897l-64.282,64.282
			C424.722,578.883,422.081,579.967,419.254,579.967L419.254,579.967z"/>
	</g>
	<g>
		<path fill="#868686" d="M411.219,523.718c-3.106,0-6.031-1.332-8.021-3.653c-3.55-4.148-3.307-10.427,0.558-14.295l40.183-40.176
			c1.984-1.99,4.632-3.087,7.444-3.087c2.814,0,5.46,1.097,7.448,3.088c1.989,1.983,3.086,4.631,3.086,7.443
			c0,2.814-1.097,5.46-3.088,7.448l-40.175,40.178C416.688,522.634,414.046,523.718,411.219,523.718z"/>
	</g>
	<g>
		<path fill="#868686" d="M399.164,471.485c-3.109,0-6.031-1.332-8.02-3.655c-3.555-4.146-3.311-10.428,0.559-14.294l28.124-28.124
			c1.99-1.988,4.636-3.086,7.449-3.086c2.813,0,5.458,1.098,7.446,3.086c1.99,1.986,3.086,4.634,3.086,7.447
			c0,2.814-1.096,5.46-3.086,7.45L406.6,468.433C404.632,470.401,401.991,471.485,399.164,471.485L399.164,471.485z"/>
	</g>
	<g>
		<path fill="#868686" d="M33.533,198.277c-2.833,0-5.478-1.085-7.448-3.055c-1.989-1.987-3.086-4.634-3.086-7.446
			c0-2.814,1.097-5.459,3.087-7.448L90.37,116.04c1.989-1.986,4.633-3.083,7.448-3.083c2.813,0,5.458,1.097,7.449,3.082
			c4.103,4.11,4.103,10.792,0.002,14.898l-64.287,64.284C39.01,197.192,36.365,198.277,33.533,198.277z"/>
	</g>
	<g>
		<path fill="#868686" d="M89.794,206.308c-3.106,0-6.029-1.332-8.018-3.654c-3.554-4.153-3.307-10.431,0.561-14.292l40.178-40.178
			c1.987-1.99,4.631-3.086,7.445-3.086c2.813,0,5.458,1.096,7.448,3.086c1.99,1.985,3.087,4.632,3.087,7.445
			c0,2.814-1.096,5.46-3.087,7.451l-40.179,40.175C95.261,205.225,92.621,206.308,89.794,206.308L89.794,206.308z"/>
	</g>
	<g>
		<path fill="#868686" d="M142.014,218.365c-2.832,0-5.477-1.084-7.448-3.053c-4.104-4.108-4.104-10.791-0.003-14.897l28.126-28.126
			c1.991-1.988,4.636-3.083,7.449-3.083c2.812,0,5.457,1.096,7.447,3.082c4.104,4.109,4.104,10.791,0.002,14.897l-28.125,28.126
			C147.49,217.281,144.845,218.365,142.014,218.365z"/>
	</g>
	<polyline fill="#868686" points="376.313,315.562 398.875,346.5 416.313,334.75 394.063,304.312 	"/>
</g>
</svg>
