<?xml version="1.0" encoding="utf-8"?>
<!-- Generator: Adobe Illustrator 16.0.0, SVG Export Plug-In . SVG Version: 6.00 Build 0)  -->
<!DOCTYPE svg PUBLIC "-//W3C//DTD SVG 1.1//EN" "http://www.w3.org/Graphics/SVG/1.1/DTD/svg11.dtd">
<svg version="1.1" id="Capa_1" xmlns="http://www.w3.org/2000/svg" xmlns:xlink="http://www.w3.org/1999/xlink" x="0px" y="0px"
	 width="40px" height="30px" viewBox="0 0 512 512" enable-background="new 0 0 512 512" xml:space="preserve">
<g>
	<g>
		<path fill="#868686" d="M504.086,181.122l-276.215-58.879c-0.004-0.001-0.009-0.001-0.013-0.002
			c-0.354-0.074-0.715-0.132-1.082-0.168c-0.068-0.007-0.136-0.005-0.204-0.01c-0.26-0.021-0.52-0.04-0.785-0.04H10
			c-5.523,0-10,4.478-10,10v83.978c0,5.522,4.477,10,10,10s10-4.478,10-10v-73.978h87.894v50.593h-6.867c-5.523,0-10,4.479-10,10
			c0,5.522,4.477,10,10,10h6.867v86.771h-6.867c-5.523,0-10,4.477-10,10c0,5.521,4.477,10,10,10h6.867v50.593H20V296
			c0-5.521-4.477-10-10-10s-10,4.479-10,10v83.979c0,5.521,4.477,10,10,10h215.786h276.215c5.523,0,10-4.479,10-10V190.902
			C512.001,186.182,508.702,182.106,504.086,181.122z M127.894,319.385h6.867c5.523,0,10-4.479,10-10c0-5.523-4.477-10-10-10h-6.867
			v-86.771h6.867c5.523,0,10-4.478,10-10c0-5.521-4.477-10-10-10h-6.867v-50.593h87.893v227.955h-87.893V319.385z M492.001,369.978
			H235.786V144.378l256.215,54.615V369.978L492.001,369.978z"/>
		<path fill="#868686" d="M392.068,353.999c5.522,0,10.001-4.478,10.001-10V216.748c0-5.521-4.479-10-10.001-10s-10,4.479-10,10
			v127.251C382.068,349.521,386.546,353.999,392.068,353.999z"/>
		<path fill="#868686" d="M448.419,353.999c5.523,0,10-4.478,10-10v-115.24c0-5.521-4.477-10-10-10c-5.521,0-10,4.479-10,10v115.239
			C438.419,349.521,442.896,353.999,448.419,353.999z"/>
		<path fill="#868686" d="M335.718,353.999c5.523,0,10-4.478,10-10V204.736c0-5.523-4.477-10-10-10c-5.522,0-10,4.477-10,10v139.263
			C325.718,349.521,330.195,353.999,335.718,353.999z"/>
		<path fill="#868686" d="M279.368,353.999c5.522,0,10-4.478,10-10V192.724c0-5.522-4.478-10-10-10s-10,4.478-10,10v151.272
			C269.368,349.521,273.846,353.999,279.368,353.999z"/>
		<path fill="#868686" d="M10,266c5.508,0,10.001-4.493,10.001-10c0-5.508-4.493-10-10.001-10s-10,4.492-10,10
			C0,261.507,4.492,266,10,266z"/>
	</g>
</g>
<rect y="204.5" fill="#868686" width="20" height="99.5"/>
</svg>
