<?xml version="1.0" encoding="utf-8"?>
<!-- Generator: Adobe Illustrator 22.0.0, SVG Export Plug-In . SVG Version: 6.00 Build 0)  -->
<svg version="1.1" id="Layer_1" xmlns="http://www.w3.org/2000/svg" xmlns:xlink="http://www.w3.org/1999/xlink" x="0px" y="0px"
	 width="40px" height="30px" viewBox="0 0 512 512" style="enable-background:new 0 0 512 512;" xml:space="preserve">
<style type="text/css">
	.st0{fill:#868686;}
	.st1{fill:#FFFFFF;stroke:#868686;stroke-width:8;stroke-miterlimit:10;}
	.st2{fill:#FFFFFF;stroke:#868686;stroke-width:12;stroke-miterlimit:10;}
</style>
<g>
	<g>
		<path class="st0" d="M168.4,351.9H90.3c-1.8,0-3.2-1.9-3.2-4.2v-76.2c0-2.3,1.4-4.2,3.2-4.2h78.1c1.8,0,3.2,1.9,3.2,4.2v76.2
			C171.6,350,170.2,351.9,168.4,351.9z M93.5,343.5h71.6v-67.7H93.5V343.5z"/>
		<path class="st0" d="M142.3,299.8c-0.7,0-1.4-0.2-1.9-0.6l-11.1-8.3l-11.1,8.3c-1,0.7-2.3,0.9-3.4,0.3c-1.1-0.5-1.8-1.7-1.8-2.9
			v-26.1c0-1.8,1.4-3.2,3.2-3.2h26.1c1.8,0,3.2,1.4,3.2,3.2v26.1c0,1.2-0.7,2.4-1.8,2.9C143.3,299.7,142.8,299.8,142.3,299.8z
			 M129.3,283.6c0.7,0,1.4,0.2,1.9,0.6l7.8,5.9v-16.3h-19.5v16.3l7.8-5.9C127.9,283.8,128.6,283.6,129.3,283.6z"/>
		<path class="st0" d="M246.5,351.9h-78.1c-1.8,0-3.2-1.9-3.2-4.2v-76.2c0-2.3,1.4-4.2,3.2-4.2h78.1c1.8,0,3.2,1.9,3.2,4.2v76.2
			C249.8,350,248.3,351.9,246.5,351.9z M171.6,343.5h71.6v-67.7h-71.6V343.5L171.6,343.5z"/>
		<path class="st0" d="M220.5,299.8c-0.7,0-1.4-0.2-1.9-0.6l-11.1-8.3l-11.1,8.3c-1,0.7-2.3,0.9-3.4,0.3c-1.1-0.5-1.8-1.7-1.8-2.9
			v-26.1c0-1.8,1.4-3.2,3.2-3.2h26.1c1.8,0,3.2,1.4,3.2,3.2v26.1c0,1.2-0.7,2.4-1.8,2.9C221.5,299.7,221,299.8,220.5,299.8z
			 M207.5,283.6c0.7,0,1.4,0.2,1.9,0.6l7.8,5.9v-16.3h-19.5v16.3l7.8-5.9C206.1,283.8,206.8,283.6,207.5,283.6z"/>
		<path class="st0" d="M206.1,275.3H128c-1.8,0-3.2-1.9-3.2-4.2v-76.2c0-2.3,1.4-4.2,3.2-4.2h78.1c1.8,0,3.2,1.9,3.2,4.2V271
			C209.4,273.4,207.9,275.3,206.1,275.3z M131.2,266.8h71.6v-67.7h-71.6V266.8z"/>
		<path class="st0" d="M180.1,223.2c-0.7,0-1.4-0.2-1.9-0.6l-11.1-8.3l-11.1,8.3c-1,0.7-2.3,0.9-3.4,0.3c-1.1-0.5-1.8-1.7-1.8-2.9
			v-26.1c0-1.8,1.4-3.2,3.2-3.2h26.1c1.8,0,3.2,1.4,3.2,3.2v26.1c0,1.2-0.7,2.4-1.8,2.9C181.1,223,180.6,223.2,180.1,223.2z
			 M167.1,206.9c0.7,0,1.4,0.2,1.9,0.6l7.8,5.9v-16.3h-19.5v16.3l7.8-5.9C165.7,207.1,166.4,206.9,167.1,206.9z"/>
	</g>
	<g>
		<g>
			<circle class="st1" cx="66.4" cy="400.4" r="32.3"/>
			<circle class="st1" cx="145.8" cy="400.4" r="32.3"/>
			<rect x="66.4" y="396.3" class="st0" width="79.4" height="8.2"/>
		</g>
		<g>
			<circle class="st1" cx="217.4" cy="400.4" r="32.3"/>
			<circle class="st1" cx="296.8" cy="400.4" r="32.3"/>
			<rect x="217.4" y="396.3" class="st0" width="79.4" height="8.2"/>
		</g>
		<g>
			<circle class="st1" cx="366.9" cy="400.4" r="32.3"/>
			<circle class="st1" cx="446.3" cy="400.4" r="32.3"/>
			<rect x="366.9" y="396.3" class="st0" width="79.4" height="8.2"/>
		</g>
	</g>
	<rect x="12.1" y="351.5" class="st0" width="488.5" height="25.5"/>
	<g>
		<rect x="333.1" y="199.2" class="st2" width="140.2" height="157.4"/>
		<g>
			<rect x="352.3" y="232" class="st0" width="42.5" height="14.3"/>
			<rect x="411.7" y="232" class="st0" width="42.5" height="14.3"/>
		</g>
		<g>
			<rect x="352.3" y="268.1" class="st0" width="42.5" height="14.3"/>
			<rect x="411.7" y="268.1" class="st0" width="42.5" height="14.3"/>
		</g>
		<g>
			<rect x="352.3" y="304.2" class="st0" width="42.5" height="14.3"/>
			<rect x="411.7" y="304.2" class="st0" width="42.5" height="14.3"/>
		</g>
	</g>
	<rect x="419.7" y="164.5" class="st2" width="21.4" height="34.7"/>
	<path class="st0" d="M389.9,129.9c3.2,0,6.3-0.6,9.3-1.6c1.4,0.9,2.9,1.7,4.4,2.3c1.6,10.2,10.5,18.1,21.2,18.1
		c11.8,0,21.5-9.6,21.5-21.5c0-5.6-2.2-10.8-5.9-14.8c0.6-2.3,0.9-4.6,0.9-6.9c0-15-12.2-27.2-27.2-27.2c-3.2,0-6.3,0.6-9.3,1.6
		c-4.4-2.9-9.5-4.4-14.9-4.4c-15,0-27.2,12.2-27.2,27.2C362.7,117.7,374.9,129.9,389.9,129.9z M389.9,90.5c3.2,0,6.3,1.3,8.6,3.5
		c2.4,2.4,6.2,2.9,9.2,1.1c1.9-1.2,4.1-1.8,6.4-1.8c6.7,0,12.2,5.5,12.2,12.2c0,2.1-0.5,4-1.5,5.8c-0.9,1.7-1.2,3.8-0.6,5.7
		c0.6,1.9,1.9,3.5,3.6,4.5c2.1,1.1,3.4,3.3,3.4,5.7c0,3.6-2.9,6.5-6.5,6.5c-3.6,0-6.5-2.9-6.5-6.5c0-0.3,0-0.7,0.1-1
		c0.3-2-0.2-4-1.3-5.6c-1.2-1.6-2.9-2.7-4.9-3c-2.5-0.4-4.8-1.6-6.7-3.4c-1.4-1.4-3.3-2.2-5.3-2.2c-1.3,0-2.7,0.4-3.9,1.1
		c-1.9,1.2-4.1,1.8-6.4,1.8c-6.7,0-12.2-5.5-12.2-12.2C377.6,96,383.1,90.5,389.9,90.5z"/>
</g>
</svg>
