<?xml version="1.0" encoding="utf-8"?>
<!-- Generator: Adobe Illustrator 22.0.0, SVG Export Plug-In . SVG Version: 6.00 Build 0)  -->
<svg version="1.1" id="Capa_1" xmlns="http://www.w3.org/2000/svg" xmlns:xlink="http://www.w3.org/1999/xlink" x="0px" y="0px"
	 width="40px" height="30px" viewBox="0 0 680 680" style="enable-background:new 0 0 680 680;" xml:space="preserve">
<style type="text/css">
	.st0{fill:none;stroke:#868686;stroke-width:15;stroke-miterlimit:10;}
	.st1{fill:#868686;}
	.st2{fill:none;stroke:#FFFFFF;stroke-width:2;stroke-miterlimit:10;}
</style>
<rect x="737.6" y="401" class="st0" width="56.3" height="28.1"/>
<path class="st0" d="M568.8,190.1v126.7h214.8l-64.5-119.3c-2.4-4.5-7.2-7.4-12.4-7.4C706.7,190.1,568.8,190.1,568.8,190.1z"/>
<path class="st0" d="M779.9,541.7c7.7,0,14.1-6.3,14.1-14.1v-14h-42.3v-28.1h42.1v-28.1h-56.3c-15.6,0-28.1-12.5-28.1-28.1V401
	c0-15.6,12.5-28.1,28.1-28.1h56.3v-26.7c0-0.5-0.2-1-0.2-1.4H554.8c-7.7,0-14.1-6.3-14.1-14.1V189.9h-28.1v351.7h43.4
	c7.7-46,51.1-76.8,97.1-69.1c35.4,5.9,63.2,33.8,69.1,69.1H779.9z M596.9,401h-56.3v-28.1h56.3V401z"/>
<path class="st0" d="M639.2,499.6c-31,0-56.3,25.2-56.3,56.3c0,31,25.2,56.3,56.3,56.3c31,0,56.3-25.2,56.3-56.3
	C695.5,524.8,670.2,499.6,639.2,499.6z M653.2,569.8H625v-28.1h28.1V569.8z"/>
<path class="st0" d="M118.6,499.6c-31,0-56.3,25.2-56.3,56.3c0,31,25.2,56.3,56.3,56.3s56.3-25.2,56.3-56.3
	C174.9,524.8,149.7,499.6,118.6,499.6z M132.8,569.8h-28.1v-28.1h28.1V569.8z"/>
<path class="st0" d="M484.4,541.7v-98.5H6.1v98.5h29.4c7.7-46,51.1-76.8,97.1-69.1c35.4,5.9,63.2,33.8,69.1,69.1H484.4z"/>
<rect x="55.9" y="311.1" class="st1" width="112.5" height="112.5"/>
<line class="st2" x1="55.9" y1="423.7" x2="168.5" y2="311.1"/>
<line class="st2" x1="55.9" y1="311.1" x2="168.5" y2="423.7"/>
<rect x="183.7" y="311.1" class="st1" width="112.5" height="112.5"/>
<line class="st2" x1="183.7" y1="423.7" x2="296.3" y2="311.1"/>
<line class="st2" x1="183.7" y1="311.1" x2="296.3" y2="423.7"/>
<rect x="125.1" y="184.6" class="st1" width="112.5" height="112.5"/>
<line class="st2" x1="125.1" y1="297.1" x2="237.6" y2="184.6"/>
<line class="st2" x1="125.1" y1="184.6" x2="237.6" y2="297.1"/>
<rect x="252.9" y="184.6" class="st1" width="112.5" height="112.5"/>
<line class="st2" x1="252.9" y1="297.1" x2="365.4" y2="184.6"/>
<line class="st2" x1="252.9" y1="184.6" x2="365.4" y2="297.1"/>
<rect x="312.4" y="311.1" class="st1" width="112.5" height="112.5"/>
<line class="st2" x1="312.4" y1="423.7" x2="424.9" y2="311.1"/>
<line class="st2" x1="312.4" y1="311.1" x2="424.9" y2="423.7"/>
</svg>
